<svg id="Group_4" data-name="Group 4" xmlns="http://www.w3.org/2000/svg" width="339.764" height="100" viewBox="0 0 339.764 100">
  <g id="Group_1" data-name="Group 1" transform="translate(87.816 29.071)">
    <path id="Path_1" data-name="Path 1" d="M78.907,26.52h10.55v2H80.968v4.956h7.464V35.42H80.968v7.421H78.907Z" transform="translate(-78.907 -26.077)" fill="#007a9c"/>
    <path id="Path_2" data-name="Path 2" d="M102.6,28.9a9.478,9.478,0,0,1,1.51,5.545,10.2,10.2,0,0,1-1.727,6.075,7.338,7.338,0,0,1-11.308.356,9.868,9.868,0,0,1-1.791-6.065,10.151,10.151,0,0,1,1.534-5.666,6.493,6.493,0,0,1,5.818-3.022A6.772,6.772,0,0,1,102.6,28.9Zm-1.817,10.4a9.418,9.418,0,0,0,1.216-4.82,7.206,7.206,0,0,0-1.4-4.636,4.641,4.641,0,0,0-3.835-1.758A4.835,4.835,0,0,0,92.9,29.828a7.688,7.688,0,0,0-1.491,5.131,7.882,7.882,0,0,0,1.28,4.576A4.663,4.663,0,0,0,96.84,41.4,4.206,4.206,0,0,0,100.779,39.3Z" transform="translate(-77.736 -26.122)" fill="#007a9c"/>
    <path id="Path_3" data-name="Path 3" d="M104.428,26.52h2.425l7.586,13.187V26.52h1.968V42.841h-2.315l-7.7-13.171V42.841h-1.966Z" transform="translate(-76.025 -26.077)" fill="#007a9c"/>
    <path id="Path_4" data-name="Path 4" d="M117.889,26.52h6.08a5.563,5.563,0,0,1,4.8,2.388,9.357,9.357,0,0,1,1.524,5.522,11.821,11.821,0,0,1-.9,4.7,5.537,5.537,0,0,1-5.448,3.71h-6.058Zm5.676,14.432a5.1,5.1,0,0,0,1.68-.234,3.759,3.759,0,0,0,1.922-1.666,7.193,7.193,0,0,0,.863-2.534,10.539,10.539,0,0,0,.151-1.709,8.553,8.553,0,0,0-1.1-4.711,3.913,3.913,0,0,0-3.538-1.677H119.97V40.952Z" transform="translate(-74.506 -26.077)" fill="#007a9c"/>
    <path id="Path_5" data-name="Path 5" d="M135.754,26.52h2.326l5.52,16.321h-2.257l-1.588-4.889h-5.967l-1.649,4.889h-2.111Zm3.417,9.633-2.342-7.212L134.4,36.153Z" transform="translate(-73.135 -26.077)" fill="#007a9c"/>
    <path id="Path_6" data-name="Path 6" d="M152.526,26.52v1.945H147.4V42.841h-2.081V28.465H140.2V26.52Z" transform="translate(-71.987 -26.077)" fill="#007a9c"/>
    <path id="Path_7" data-name="Path 7" d="M153.016,26.52H155.1V42.841h-2.081Z" transform="translate(-70.539 -26.077)" fill="#007a9c"/>
    <path id="Path_8" data-name="Path 8" d="M170.118,28.9a9.471,9.471,0,0,1,1.514,5.545,10.2,10.2,0,0,1-1.729,6.075,7.337,7.337,0,0,1-11.307.356,9.861,9.861,0,0,1-1.792-6.065,10.151,10.151,0,0,1,1.534-5.666,6.491,6.491,0,0,1,5.819-3.022A6.769,6.769,0,0,1,170.118,28.9ZM168.3,39.3a9.429,9.429,0,0,0,1.216-4.82,7.218,7.218,0,0,0-1.4-4.636,4.652,4.652,0,0,0-3.837-1.758,4.832,4.832,0,0,0-3.852,1.742,7.694,7.694,0,0,0-1.492,5.131,7.89,7.89,0,0,0,1.279,4.576,4.67,4.67,0,0,0,4.148,1.862A4.207,4.207,0,0,0,168.3,39.3Z" transform="translate(-70.112 -26.122)" fill="#007a9c"/>
    <path id="Path_9" data-name="Path 9" d="M171.949,26.52h2.425l7.588,13.187V26.52h1.968V42.841h-2.314l-7.7-13.171V42.841h-1.97Z" transform="translate(-68.402 -26.077)" fill="#007a9c"/>
    <path id="Path_10" data-name="Path 10" d="M199.5,26.731a4.014,4.014,0,0,1,1.554,1.482V26.557h9.371V28.5H203v5.01h7.063V35.4H203v5.532h7.455v1.944h-9.432V41.162a3.83,3.83,0,0,1-1.528,1.487,5.552,5.552,0,0,1-2.779.607,5.621,5.621,0,0,1-4.226-2.1,9.65,9.65,0,0,1-1.883-6.277,11.3,11.3,0,0,1,1.305-5.61,5.629,5.629,0,0,1,5.252-3.078A4.763,4.763,0,0,1,199.5,26.731Zm.29,13.8a3.761,3.761,0,0,0,1.14-3.1V31.69a3.515,3.515,0,0,0-1.061-2.7,3.684,3.684,0,0,0-2.621-.99,3.921,3.921,0,0,0-3.817,2.687,10.981,10.981,0,0,0-.733,4.262,8.879,8.879,0,0,0,1.111,4.663,4.079,4.079,0,0,0,5.982.915Z" transform="translate(-66.294 -26.114)" fill="#007a9c"/>
    <path id="Path_11" data-name="Path 11" d="M213.411,26.52V36.609a6.267,6.267,0,0,0,.625,2.955,3.249,3.249,0,0,0,3.132,1.777,3.626,3.626,0,0,0,3.591-1.922,6.473,6.473,0,0,0,.511-2.81V26.52h2.079v9.166a11.238,11.238,0,0,1-.758,4.633q-1.391,2.955-5.257,2.955t-5.247-2.955a11.3,11.3,0,0,1-.757-4.633V26.52Z" transform="translate(-63.955 -26.077)" fill="#007a9c"/>
    <path id="Path_12" data-name="Path 12" d="M225.9,26.52l4.367,13.9,4.318-13.9h2.309l-5.55,16.321h-2.186L223.616,26.52Z" transform="translate(-62.568 -26.077)" fill="#007a9c"/>
    <path id="Path_13" data-name="Path 13" d="M236.749,26.52h6.912a6.4,6.4,0,0,1,2.818.545,3.9,3.9,0,0,1,2.1,3.854,4.593,4.593,0,0,1-.563,2.4,4.193,4.193,0,0,1-1.579,1.5,3.126,3.126,0,0,1,1.34,1.022,3.832,3.832,0,0,1,.5,2.056l.076,2.188a6.983,6.983,0,0,0,.146,1.389,1.356,1.356,0,0,0,.661,1v.367h-2.525a2.008,2.008,0,0,1-.167-.544,10.863,10.863,0,0,1-.1-1.289l-.126-2.722a2.333,2.333,0,0,0-1.076-2.143,4.044,4.044,0,0,0-1.8-.3h-4.556v7h-2.06ZM243.441,34a3.611,3.611,0,0,0,2.231-.621,2.66,2.66,0,0,0,.82-2.245,2.47,2.47,0,0,0-1.15-2.377,3.453,3.453,0,0,0-1.642-.333h-4.892V34Z" transform="translate(-61.085 -26.077)" fill="#007a9c"/>
    <path id="Path_14" data-name="Path 14" d="M250.081,26.52h11.036v2h-9.028v4.956h8.347v1.889h-8.347V40.9h9.187v1.944H250.081Z" transform="translate(-59.58 -26.077)" fill="#007a9c"/>
    <path id="Path_15" data-name="Path 15" d="M267.227,26.52h6.082a5.561,5.561,0,0,1,4.8,2.388,9.356,9.356,0,0,1,1.522,5.522,11.84,11.84,0,0,1-.9,4.7,5.537,5.537,0,0,1-5.445,3.71h-6.061ZM272.9,40.952a5.1,5.1,0,0,0,1.681-.234,3.765,3.765,0,0,0,1.923-1.666,7.306,7.306,0,0,0,.863-2.534,10.782,10.782,0,0,0,.149-1.709,8.553,8.553,0,0,0-1.1-4.711,3.918,3.918,0,0,0-3.538-1.677h-3.574V40.952Z" transform="translate(-57.644 -26.077)" fill="#007a9c"/>
    <path id="Path_16" data-name="Path 16" d="M280.7,26.52h11.038v2h-9.029v4.956h8.346v1.889h-8.346V40.9h9.185v1.944H280.7Z" transform="translate(-56.123 -26.077)" fill="#007a9c"/>
  </g>
  <g id="Group_2" data-name="Group 2" transform="translate(87.619 51.524)">
    <path id="Path_17" data-name="Path 17" d="M78.73,46.7h2.06V61.072h7.631v1.943H78.73Z" transform="translate(-78.73 -46.252)" fill="#007a9c"/>
    <path id="Path_18" data-name="Path 18" d="M94.276,46.7H96.6l5.52,16.319H99.866l-1.587-4.888H92.312l-1.649,4.888H88.549Zm3.419,9.631-2.344-7.209-2.433,7.209Z" transform="translate(-77.621 -46.252)" fill="#007a9c"/>
    <path id="Path_19" data-name="Path 19" d="M117.495,47.93a5.961,5.961,0,0,1,1.751,3.71h-2.01a4.587,4.587,0,0,0-1.337-2.5,4.006,4.006,0,0,0-2.811-.921,4.347,4.347,0,0,0-3.565,1.7,8.24,8.24,0,0,0-1.357,5.2,8.062,8.062,0,0,0,1.225,4.654,4.143,4.143,0,0,0,3.656,1.784,3.77,3.77,0,0,0,3.408-1.879,7.532,7.532,0,0,0,.926-2.6h2.008a7.666,7.666,0,0,1-1.76,4.321,6.024,6.024,0,0,1-4.83,2.1,6.085,6.085,0,0,1-4.4-1.719q-2.344-2.282-2.343-7.04a9.5,9.5,0,0,1,1.759-5.924,6.22,6.22,0,0,1,5.248-2.513A5.873,5.873,0,0,1,117.495,47.93Z" transform="translate(-75.645 -46.297)" fill="#007a9c"/>
    <path id="Path_20" data-name="Path 20" d="M120.269,46.7h6.915A6.388,6.388,0,0,1,130,47.24a3.91,3.91,0,0,1,2.1,3.856,4.576,4.576,0,0,1-.565,2.4,4.176,4.176,0,0,1-1.578,1.5,3.138,3.138,0,0,1,1.341,1.023,3.88,3.88,0,0,1,.5,2.054l.072,2.19a7.225,7.225,0,0,0,.145,1.387,1.356,1.356,0,0,0,.663,1v.366h-2.526a2.1,2.1,0,0,1-.166-.543,11.216,11.216,0,0,1-.1-1.289l-.124-2.721a2.34,2.34,0,0,0-1.076-2.146,4.07,4.07,0,0,0-1.8-.3H122.33v7h-2.061Zm6.693,7.477a3.606,3.606,0,0,0,2.23-.622,2.661,2.661,0,0,0,.821-2.246,2.469,2.469,0,0,0-1.149-2.376,3.443,3.443,0,0,0-1.642-.333H122.33v5.577Z" transform="translate(-74.04 -46.252)" fill="#007a9c"/>
    <path id="Path_21" data-name="Path 21" d="M146.034,49.075a9.467,9.467,0,0,1,1.51,5.542,10.2,10.2,0,0,1-1.728,6.078,7.333,7.333,0,0,1-11.306.356,9.857,9.857,0,0,1-1.792-6.066,10.162,10.162,0,0,1,1.532-5.666,6.5,6.5,0,0,1,5.818-3.022A6.772,6.772,0,0,1,146.034,49.075Zm-1.818,10.4a9.406,9.406,0,0,0,1.218-4.819,7.2,7.2,0,0,0-1.4-4.637,4.641,4.641,0,0,0-3.835-1.758A4.841,4.841,0,0,0,136.343,50a7.692,7.692,0,0,0-1.491,5.132,7.886,7.886,0,0,0,1.279,4.577,4.669,4.669,0,0,0,4.147,1.861A4.2,4.2,0,0,0,144.215,59.477Z" transform="translate(-72.634 -46.297)" fill="#007a9c"/>
    <path id="Path_22" data-name="Path 22" d="M148.284,46.7h2.081V63.016h-2.081Z" transform="translate(-70.877 -46.252)" fill="#007a9c"/>
    <path id="Path_23" data-name="Path 23" d="M154.18,63.016H151.7l5.383-8.372L152.04,46.7h2.569l3.838,6.243,3.807-6.243H164.7l-5.044,7.946,5.289,8.372H162.4l-4.052-6.709Z" transform="translate(-70.49 -46.252)" fill="#007a9c"/>
    <path id="Path_24" data-name="Path 24" d="M171.806,57.792a4.779,4.779,0,0,0,.588,2.255,3.741,3.741,0,0,0,3.481,1.624,5.6,5.6,0,0,0,2.036-.356,2.483,2.483,0,0,0,1.774-2.466,2.23,2.23,0,0,0-.751-1.9,7.151,7.151,0,0,0-2.387-.967l-2-.5A8.468,8.468,0,0,1,171.78,54.4a3.54,3.54,0,0,1-1.406-3.057,4.943,4.943,0,0,1,1.382-3.608,5.214,5.214,0,0,1,3.91-1.412,6.344,6.344,0,0,1,3.954,1.239,4.665,4.665,0,0,1,1.628,3.961h-1.938a4.4,4.4,0,0,0-.637-2.011,3.5,3.5,0,0,0-3.066-1.277,3.293,3.293,0,0,0-2.511.821,2.71,2.71,0,0,0-.766,1.91,1.911,1.911,0,0,0,.9,1.756,12.43,12.43,0,0,0,2.68.889l2.067.522a6.013,6.013,0,0,1,2.307,1.033,4.035,4.035,0,0,1,1.4,3.323A4.273,4.273,0,0,1,179.9,62.37a7.467,7.467,0,0,1-4.165,1.167A5.876,5.876,0,0,1,171.4,61.98a5.525,5.525,0,0,1-1.536-4.188Z" transform="translate(-68.44 -46.294)" fill="#007a9c"/>
    <path id="Path_25" data-name="Path 25" d="M187.486,46.7h2.326l5.519,16.319h-2.257l-1.585-4.888h-5.97l-1.648,4.888h-2.113Zm3.417,9.631-2.34-7.209-2.435,7.209Z" transform="translate(-67.097 -46.252)" fill="#007a9c"/>
    <path id="Path_26" data-name="Path 26" d="M195.854,46.7h2.082V63.016h-2.082Z" transform="translate(-65.505 -46.252)" fill="#007a9c"/>
    <path id="Path_27" data-name="Path 27" d="M200.538,46.7h2.428l7.582,13.185V46.7h1.971V63.016H210.2l-7.7-13.17v13.17h-1.968Z" transform="translate(-64.977 -46.252)" fill="#007a9c"/>
    <path id="Path_28" data-name="Path 28" d="M225.3,46.7V48.64h-5.127V63.016H218.09V48.64h-5.127V46.7Z" transform="translate(-63.574 -46.252)" fill="#007a9c"/>
    <path id="Path_29" data-name="Path 29" d="M223.852,54.743h5.2V56.8h-5.2Z" transform="translate(-62.344 -45.343)" fill="#007a9c"/>
    <path id="Path_30" data-name="Path 30" d="M232.456,57.792a4.845,4.845,0,0,0,.586,2.255,3.741,3.741,0,0,0,3.481,1.624,5.608,5.608,0,0,0,2.038-.356,2.484,2.484,0,0,0,1.775-2.466,2.225,2.225,0,0,0-.755-1.9,7.133,7.133,0,0,0-2.386-.967l-2-.5a8.477,8.477,0,0,1-2.768-1.077,3.537,3.537,0,0,1-1.406-3.057,4.942,4.942,0,0,1,1.381-3.608,5.212,5.212,0,0,1,3.909-1.412,6.341,6.341,0,0,1,3.955,1.239,4.66,4.66,0,0,1,1.626,3.961h-1.934a4.4,4.4,0,0,0-.635-2.011,3.5,3.5,0,0,0-3.066-1.277,3.3,3.3,0,0,0-2.513.821,2.72,2.72,0,0,0-.767,1.91,1.912,1.912,0,0,0,.9,1.756,12.447,12.447,0,0,0,2.681.889l2.064.522a6.011,6.011,0,0,1,2.308,1.033,4.035,4.035,0,0,1,1.4,3.323,4.27,4.27,0,0,1-1.792,3.876,7.459,7.459,0,0,1-4.165,1.167,5.882,5.882,0,0,1-4.335-1.557,5.536,5.536,0,0,1-1.534-4.188Z" transform="translate(-61.592 -46.294)" fill="#007a9c"/>
    <path id="Path_31" data-name="Path 31" d="M243.986,46.7h2.081V63.016h-2.081Z" transform="translate(-60.071 -46.252)" fill="#007a9c"/>
    <path id="Path_32" data-name="Path 32" d="M249.006,46.7h2.951l4.373,13.8,4.34-13.8h2.935V63.016h-1.969V53.384q0-.5.02-1.655c.012-.77.021-1.6.021-2.477l-4.343,13.763h-2.043l-4.38-13.763v.5q0,.6.029,1.827t.032,1.806v9.631h-1.967Z" transform="translate(-59.504 -46.252)" fill="#007a9c"/>
    <path id="Path_33" data-name="Path 33" d="M277.721,49.075a9.476,9.476,0,0,1,1.514,5.542,10.194,10.194,0,0,1-1.731,6.078,7.333,7.333,0,0,1-11.306.356,9.857,9.857,0,0,1-1.792-6.066,10.18,10.18,0,0,1,1.532-5.666A6.5,6.5,0,0,1,271.76,46.3,6.764,6.764,0,0,1,277.721,49.075Zm-1.816,10.4a9.417,9.417,0,0,0,1.218-4.819,7.215,7.215,0,0,0-1.4-4.637,4.651,4.651,0,0,0-3.838-1.758A4.841,4.841,0,0,0,268.031,50a7.692,7.692,0,0,0-1.492,5.132,7.894,7.894,0,0,0,1.28,4.577,4.665,4.665,0,0,0,4.147,1.861A4.2,4.2,0,0,0,275.9,59.477Z" transform="translate(-57.765 -46.297)" fill="#007a9c"/>
    <path id="Path_34" data-name="Path 34" d="M279.744,46.7h2.426l7.584,13.185V46.7h1.968V63.016h-2.314l-7.7-13.17v13.17h-1.968Z" transform="translate(-56.033 -46.252)" fill="#007a9c"/>
  </g>
  <g id="Group_3" data-name="Group 3" transform="translate(88.215 76.529)">
    <path id="Path_35" data-name="Path 35" d="M79.265,70.277h2.524a1.86,1.86,0,0,1,1.309.405,1.454,1.454,0,0,1,.436,1.127,1.8,1.8,0,0,1-.109.672,1.5,1.5,0,0,1-.26.428,1.021,1.021,0,0,1-.292.234c-.1.047-.168.078-.211.095v.018a.783.783,0,0,1,.255.079.754.754,0,0,1,.257.2,1.136,1.136,0,0,1,.2.361,1.722,1.722,0,0,1,.077.555,5.524,5.524,0,0,0,.07.91,1.24,1.24,0,0,0,.218.582h-.99a.952.952,0,0,1-.122-.4c-.013-.147-.018-.292-.018-.428a4.5,4.5,0,0,0-.045-.672,1.263,1.263,0,0,0-.162-.469.711.711,0,0,0-.324-.273,1.312,1.312,0,0,0-.522-.088H80.19v2.334h-.925Zm.925,2.581h1.518a.8.8,0,0,0,.9-.906,1.1,1.1,0,0,0-.075-.44.631.631,0,0,0-.2-.266.706.706,0,0,0-.295-.129,2.061,2.061,0,0,0-.345-.03h-1.5Z" transform="translate(-79.265 -68.594)" fill="#007a9c"/>
    <path id="Path_36" data-name="Path 36" d="M83.947,70.277h3.8v.857H84.872V72.62h2.664v.809H84.872V75.09H87.8v.856H83.947Z" transform="translate(-78.736 -68.594)" fill="#007a9c"/>
    <path id="Path_37" data-name="Path 37" d="M91.731,72.093a2.065,2.065,0,0,0-.161-.452,1.278,1.278,0,0,0-.267-.358,1.181,1.181,0,0,0-.381-.234,1.428,1.428,0,0,0-.507-.082,1.4,1.4,0,0,0-.729.181,1.481,1.481,0,0,0-.5.49,2.267,2.267,0,0,0-.285.692,3.48,3.48,0,0,0-.091.8,3.444,3.444,0,0,0,.091.794,2.268,2.268,0,0,0,.285.694,1.48,1.48,0,0,0,.5.49,1.411,1.411,0,0,0,.729.18,1.182,1.182,0,0,0,.956-.431,1.548,1.548,0,0,0,.265-.472,2.35,2.35,0,0,0,.126-.582h.9a2.839,2.839,0,0,1-.2.93,2.3,2.3,0,0,1-.469.727,2.09,2.09,0,0,1-.7.473,2.257,2.257,0,0,1-.88.168,2.328,2.328,0,0,1-1.857-.876,2.883,2.883,0,0,1-.5-.945,3.878,3.878,0,0,1,0-2.295,2.866,2.866,0,0,1,.5-.944,2.382,2.382,0,0,1,.8-.644,2.294,2.294,0,0,1,1.062-.239,2.642,2.642,0,0,1,.837.131,2.09,2.09,0,0,1,.691.382,1.992,1.992,0,0,1,.485.608,2.226,2.226,0,0,1,.229.817Z" transform="translate(-78.292 -68.608)" fill="#007a9c"/>
    <path id="Path_38" data-name="Path 38" d="M95.217,70.155a2.293,2.293,0,0,1,1.061.239,2.375,2.375,0,0,1,.8.644,2.885,2.885,0,0,1,.5.944,3.879,3.879,0,0,1,0,2.295,2.9,2.9,0,0,1-.5.945,2.388,2.388,0,0,1-3.716,0,2.881,2.881,0,0,1-.5-.945,3.831,3.831,0,0,1,0-2.295,2.864,2.864,0,0,1,.5-.944,2.371,2.371,0,0,1,.8-.644A2.3,2.3,0,0,1,95.217,70.155Zm0,.811a1.4,1.4,0,0,0-.729.181,1.484,1.484,0,0,0-.5.49,2.294,2.294,0,0,0-.285.692,3.481,3.481,0,0,0-.092.8,3.445,3.445,0,0,0,.092.794,2.3,2.3,0,0,0,.285.694,1.484,1.484,0,0,0,.5.49,1.564,1.564,0,0,0,1.458,0,1.491,1.491,0,0,0,.5-.49,2.3,2.3,0,0,0,.285-.694,3.445,3.445,0,0,0,.092-.794,3.48,3.48,0,0,0-.092-.8,2.294,2.294,0,0,0-.285-.692,1.491,1.491,0,0,0-.5-.49A1.406,1.406,0,0,0,95.217,70.966Z" transform="translate(-77.75 -68.608)" fill="#007a9c"/>
    <path id="Path_39" data-name="Path 39" d="M97.959,70.277h.977l2.412,4.177h.016V70.277h.881v5.669h-.977l-2.4-4.169h-.023v4.169h-.88Z" transform="translate(-77.154 -68.594)" fill="#007a9c"/>
    <path id="Path_40" data-name="Path 40" d="M102.76,70.277h.977l2.414,4.177h.014V70.277h.88v5.669h-.977l-2.4-4.169h-.021v4.169h-.883Z" transform="translate(-76.612 -68.594)" fill="#007a9c"/>
    <path id="Path_41" data-name="Path 41" d="M107.542,70.277h.926v3.3c0,.19.008.384.024.58a1.4,1.4,0,0,0,.149.529.964.964,0,0,0,.369.385,1.692,1.692,0,0,0,1.4,0,.99.99,0,0,0,.371-.385,1.424,1.424,0,0,0,.147-.529c.018-.2.026-.39.026-.58v-3.3h.926v3.629a2.66,2.66,0,0,1-.156.954,1.871,1.871,0,0,1-.44.678,1.791,1.791,0,0,1-.686.408,2.927,2.927,0,0,1-1.776,0,1.786,1.786,0,0,1-.684-.408,1.859,1.859,0,0,1-.441-.678,2.661,2.661,0,0,1-.155-.954Z" transform="translate(-76.072 -68.594)" fill="#007a9c"/>
    <path id="Path_42" data-name="Path 42" d="M112.4,70.277h3.8v.857h-2.879V72.62h2.665v.809h-2.665V75.09h2.933v.856H112.4Z" transform="translate(-75.524 -68.594)" fill="#007a9c"/>
    <path id="Path_43" data-name="Path 43" d="M118.434,70.277h2.191a2.315,2.315,0,0,1,1.052.224,1.957,1.957,0,0,1,.726.607,2.668,2.668,0,0,1,.417.9,4.52,4.52,0,0,1,0,2.208,2.678,2.678,0,0,1-.417.9,1.975,1.975,0,0,1-.726.605,2.3,2.3,0,0,1-1.052.223h-2.191Zm.926,4.86h.909a2.137,2.137,0,0,0,.885-.156,1.29,1.29,0,0,0,.541-.427,1.607,1.607,0,0,0,.266-.644,4.569,4.569,0,0,0,0-1.595,1.607,1.607,0,0,0-.266-.644,1.3,1.3,0,0,0-.541-.427,2.137,2.137,0,0,0-.885-.156h-.909Z" transform="translate(-74.842 -68.594)" fill="#007a9c"/>
    <path id="Path_44" data-name="Path 44" d="M123.244,72.057a.431.431,0,0,0,.357-.243,1.1,1.1,0,0,0,.093-.465h-.451V70.277h.925v1.072a1.24,1.24,0,0,1-.248.781,1.006,1.006,0,0,1-.677.387Z" transform="translate(-74.299 -68.594)" fill="#007a9c"/>
    <path id="Path_45" data-name="Path 45" d="M125.032,70.277h.925v3.3c0,.19.01.384.027.58a1.383,1.383,0,0,0,.147.529.99.99,0,0,0,.371.385,1.692,1.692,0,0,0,1.4,0,.972.972,0,0,0,.369-.385,1.4,1.4,0,0,0,.149-.529c.018-.2.027-.39.027-.58v-3.3h.924v3.629a2.685,2.685,0,0,1-.155.954,1.847,1.847,0,0,1-.442.678,1.774,1.774,0,0,1-.683.408,2.927,2.927,0,0,1-1.776,0,1.775,1.775,0,0,1-.686-.408,1.871,1.871,0,0,1-.44-.678,2.636,2.636,0,0,1-.156-.954Z" transform="translate(-74.097 -68.594)" fill="#007a9c"/>
    <path id="Path_46" data-name="Path 46" d="M129.434,70.277h4.278v.857h-1.679v4.812h-.927V71.134h-1.672Z" transform="translate(-73.6 -68.594)" fill="#007a9c"/>
    <path id="Path_47" data-name="Path 47" d="M133.83,70.277h.925v5.669h-.925Z" transform="translate(-73.104 -68.594)" fill="#007a9c"/>
    <path id="Path_48" data-name="Path 48" d="M135.68,70.277h.925V75.09h2.685v.856h-3.61Z" transform="translate(-72.895 -68.594)" fill="#007a9c"/>
    <path id="Path_49" data-name="Path 49" d="M139.495,70.277h.926v5.669h-.926Z" transform="translate(-72.464 -68.594)" fill="#007a9c"/>
    <path id="Path_50" data-name="Path 50" d="M140.893,70.277h4.278v.857h-1.68v4.812h-.926V71.134h-1.672Z" transform="translate(-72.307 -68.594)" fill="#007a9c"/>
    <path id="Path_51" data-name="Path 51" d="M145.288,70.448h3.8V71.3h-2.878V72.79h2.665V73.6h-2.665v1.662h2.93v.856h-3.856Zm2.154-1.683h1L147.391,69.9h-.614Z" transform="translate(-71.81 -68.765)" fill="#007a9c"/>
    <path id="Path_52" data-name="Path 52" d="M151.327,70.277h2.33a2.13,2.13,0,0,1,.918.174,1.464,1.464,0,0,1,.548.437,1.556,1.556,0,0,1,.264.572,2.535,2.535,0,0,1,.07.572,2.491,2.491,0,0,1-.07.568,1.542,1.542,0,0,1-.264.569,1.422,1.422,0,0,1-.548.432,2.1,2.1,0,0,1-.918.17h-1.406v2.176h-.925Zm.925,2.684h1.354a1.15,1.15,0,0,0,.318-.048.859.859,0,0,0,.3-.155.786.786,0,0,0,.221-.285,1.051,1.051,0,0,0,.085-.451,1.235,1.235,0,0,0-.073-.46.768.768,0,0,0-.2-.29.721.721,0,0,0-.289-.147,1.535,1.535,0,0,0-.346-.039h-1.372Z" transform="translate(-71.128 -68.594)" fill="#007a9c"/>
    <path id="Path_53" data-name="Path 53" d="M155.71,70.277h.925v3.3c0,.19.009.384.026.58a1.385,1.385,0,0,0,.149.529.978.978,0,0,0,.372.385,1.687,1.687,0,0,0,1.4,0,.961.961,0,0,0,.368-.385,1.428,1.428,0,0,0,.152-.529c.013-.2.022-.39.022-.58v-3.3h.927v3.629a2.611,2.611,0,0,1-.157.954,1.857,1.857,0,0,1-.44.678,1.812,1.812,0,0,1-.684.408,2.927,2.927,0,0,1-1.776,0,1.779,1.779,0,0,1-.687-.408,1.84,1.84,0,0,1-.438-.678,2.636,2.636,0,0,1-.156-.954Z" transform="translate(-70.634 -68.594)" fill="#007a9c"/>
    <path id="Path_54" data-name="Path 54" d="M160.564,70.277h2.569a1.74,1.74,0,0,1,1.14.349,1.286,1.286,0,0,1,.431,1.056,1.325,1.325,0,0,1-.2.735,1.262,1.262,0,0,1-.559.473v.016a1.155,1.155,0,0,1,.742.5,1.745,1.745,0,0,1,.25.966,1.687,1.687,0,0,1-.111.622,1.26,1.26,0,0,1-.348.5,1.759,1.759,0,0,1-.605.334,2.833,2.833,0,0,1-.88.121h-2.428Zm.925,2.376H163a.792.792,0,0,0,.554-.2.751.751,0,0,0,.224-.584.768.768,0,0,0-.2-.6.851.851,0,0,0-.578-.175h-1.51Zm0,2.484h1.637a.878.878,0,0,0,.653-.235.9.9,0,0,0,.233-.662.855.855,0,0,0-.233-.647.9.9,0,0,0-.653-.228h-1.637Z" transform="translate(-70.086 -68.594)" fill="#007a9c"/>
    <path id="Path_55" data-name="Path 55" d="M165.246,70.277h.925V75.09h2.688v.856h-3.613Z" transform="translate(-69.557 -68.594)" fill="#007a9c"/>
    <path id="Path_56" data-name="Path 56" d="M169.063,70.277h.925v5.669h-.925Z" transform="translate(-69.126 -68.594)" fill="#007a9c"/>
    <path id="Path_57" data-name="Path 57" d="M175.657,75.939l-.453.538-.769-.722a2.226,2.226,0,0,1-.615.264,2.611,2.611,0,0,1-.629.08,2.347,2.347,0,0,1-1.063-.237,2.307,2.307,0,0,1-.792-.639,2.864,2.864,0,0,1-.5-.945,3.831,3.831,0,0,1,0-2.295,2.848,2.848,0,0,1,.5-.944,2.348,2.348,0,0,1,.792-.644,2.478,2.478,0,0,1,2.125,0,2.349,2.349,0,0,1,.8.644,2.91,2.91,0,0,1,.5.944,3.751,3.751,0,0,1,.174,1.144,3.921,3.921,0,0,1-.046.59,3.629,3.629,0,0,1-.135.585,2.851,2.851,0,0,1-.226.543,1.959,1.959,0,0,1-.343.457Zm-2.407-1.288.446-.548.641.6a1.983,1.983,0,0,0,.356-.739,3.439,3.439,0,0,0,.107-.841,3.482,3.482,0,0,0-.095-.8,2.324,2.324,0,0,0-.286-.692,1.484,1.484,0,0,0-.5-.49,1.551,1.551,0,0,0-1.456,0,1.474,1.474,0,0,0-.5.49,2.323,2.323,0,0,0-.285.692,3.42,3.42,0,0,0-.092.8,3.385,3.385,0,0,0,.092.794,2.324,2.324,0,0,0,.285.694,1.474,1.474,0,0,0,.5.49,1.409,1.409,0,0,0,.728.18,1.469,1.469,0,0,0,.3-.03,1.054,1.054,0,0,0,.293-.1Z" transform="translate(-68.946 -68.608)" fill="#007a9c"/>
    <path id="Path_58" data-name="Path 58" d="M175.914,70.277h.925v3.3c0,.19.007.384.026.58a1.4,1.4,0,0,0,.147.529.982.982,0,0,0,.371.385,1.694,1.694,0,0,0,1.4,0,.961.961,0,0,0,.368-.385,1.425,1.425,0,0,0,.149-.529c.018-.2.026-.39.026-.58v-3.3h.925v3.629a2.636,2.636,0,0,1-.156.954,1.82,1.82,0,0,1-.442.678,1.762,1.762,0,0,1-.682.408,2.659,2.659,0,0,1-.887.138,2.686,2.686,0,0,1-.891-.138,1.791,1.791,0,0,1-.683-.408,1.815,1.815,0,0,1-.44-.678,2.662,2.662,0,0,1-.155-.954Z" transform="translate(-68.352 -68.594)" fill="#007a9c"/>
    <path id="Path_59" data-name="Path 59" d="M180.768,70.277h3.8v.857h-2.878V72.62h2.664v.809h-2.664V75.09h2.929v.856h-3.855Z" transform="translate(-67.804 -68.594)" fill="#007a9c"/>
    <path id="Path_60" data-name="Path 60" d="M186.807,70.277h.925V75.09h2.688v.856h-3.612Z" transform="translate(-67.122 -68.594)" fill="#007a9c"/>
    <path id="Path_61" data-name="Path 61" d="M190.624,70.277h3.8v.857h-2.88V72.62h2.669v.809h-2.669V75.09h2.934v.856h-3.856Z" transform="translate(-66.691 -68.594)" fill="#007a9c"/>
    <path id="Path_62" data-name="Path 62" d="M199.955,75.946h-3.539a2.392,2.392,0,0,1,.311-1.205,2.972,2.972,0,0,1,.828-.9c.168-.134.346-.26.526-.386a3.777,3.777,0,0,0,.5-.4,2.111,2.111,0,0,0,.381-.463,1.164,1.164,0,0,0,.155-.578,1.685,1.685,0,0,0-.032-.322.91.91,0,0,0-.131-.317.8.8,0,0,0-.265-.247.9.9,0,0,0-.446-.1.767.767,0,0,0-.417.107.788.788,0,0,0-.267.295,1.561,1.561,0,0,0-.149.438,3.628,3.628,0,0,0-.053.551h-.845a3.1,3.1,0,0,1,.115-.855,1.9,1.9,0,0,1,.346-.68,1.636,1.636,0,0,1,.556-.449,1.933,1.933,0,0,1,1.559,0,1.509,1.509,0,0,1,.513.422,1.557,1.557,0,0,1,.278.552,2.1,2.1,0,0,1,.08.569,1.81,1.81,0,0,1-.095.6,1.908,1.908,0,0,1-.259.5,2.618,2.618,0,0,1-.368.416c-.14.129-.283.247-.43.358s-.3.218-.446.317-.283.2-.41.3a2.535,2.535,0,0,0-.329.312.9.9,0,0,0-.193.346h2.525Z" transform="translate(-66.037 -68.594)" fill="#007a9c"/>
    <path id="Path_63" data-name="Path 63" d="M202.752,71.794a.888.888,0,0,0-.226-.551.687.687,0,0,0-.528-.211.809.809,0,0,0-.4.091.877.877,0,0,0-.28.243,1.18,1.18,0,0,0-.186.345,3.116,3.116,0,0,0-.114.41,3,3,0,0,0-.063.425c-.013.139-.023.27-.035.392l.014.018a1.156,1.156,0,0,1,.471-.5,1.349,1.349,0,0,1,.647-.161,1.61,1.61,0,0,1,.69.142,1.464,1.464,0,0,1,.512.394,1.739,1.739,0,0,1,.325.591,2.423,2.423,0,0,1,.108.738,2.225,2.225,0,0,1-.12.751,1.744,1.744,0,0,1-.352.6,1.621,1.621,0,0,1-.548.4,1.68,1.68,0,0,1-.7.144,1.748,1.748,0,0,1-.936-.228,1.62,1.62,0,0,1-.578-.619,2.848,2.848,0,0,1-.29-.92,7.081,7.081,0,0,1-.083-1.141,5.084,5.084,0,0,1,.1-1.007,3.135,3.135,0,0,1,.331-.926,1.92,1.92,0,0,1,.6-.679,1.682,1.682,0,0,1,1.5-.151,1.6,1.6,0,0,1,.486.309,1.645,1.645,0,0,1,.344.477,1.548,1.548,0,0,1,.147.619Zm-.815,3.511a.784.784,0,0,0,.4-.1.927.927,0,0,0,.285-.257,1.116,1.116,0,0,0,.169-.372,1.632,1.632,0,0,0,.055-.431,1.606,1.606,0,0,0-.055-.43,1.048,1.048,0,0,0-.169-.361.863.863,0,0,0-.285-.249.783.783,0,0,0-.4-.1.85.85,0,0,0-.4.091.831.831,0,0,0-.295.248,1.072,1.072,0,0,0-.178.361,1.643,1.643,0,0,0,0,.873,1.162,1.162,0,0,0,.178.369.825.825,0,0,0,.295.258A.813.813,0,0,0,201.937,75.305Z" transform="translate(-65.624 -68.594)" fill="#007a9c"/>
    <path id="Path_64" data-name="Path 64" d="M205.906,70.277H208.1a2.322,2.322,0,0,1,1.052.224,1.983,1.983,0,0,1,.726.607,2.687,2.687,0,0,1,.416.9,4.485,4.485,0,0,1,0,2.208,2.7,2.7,0,0,1-.416.9,2,2,0,0,1-.726.605,2.307,2.307,0,0,1-1.052.223h-2.191Zm.925,4.86h.91a2.144,2.144,0,0,0,.885-.156,1.272,1.272,0,0,0,.54-.427,1.624,1.624,0,0,0,.267-.644,4.5,4.5,0,0,0,0-1.595,1.624,1.624,0,0,0-.267-.644,1.281,1.281,0,0,0-.54-.427,2.144,2.144,0,0,0-.885-.156h-.91Z" transform="translate(-64.966 -68.594)" fill="#007a9c"/>
    <path id="Path_65" data-name="Path 65" d="M210.708,70.448h3.8V71.3h-2.879V72.79H214.3V73.6h-2.665v1.662h2.931v.856h-3.856Zm2.153-1.683h1L212.809,69.9h-.615Z" transform="translate(-64.424 -68.765)" fill="#007a9c"/>
    <path id="Path_66" data-name="Path 66" d="M218.492,72.093a2.066,2.066,0,0,0-.161-.452,1.244,1.244,0,0,0-.269-.358,1.166,1.166,0,0,0-.377-.234,1.426,1.426,0,0,0-.509-.082,1.41,1.41,0,0,0-.73.181,1.5,1.5,0,0,0-.5.49,2.236,2.236,0,0,0-.283.692,3.42,3.42,0,0,0-.094.8,3.385,3.385,0,0,0,.094.794,2.238,2.238,0,0,0,.283.694,1.5,1.5,0,0,0,.5.49,1.421,1.421,0,0,0,.73.18,1.266,1.266,0,0,0,.548-.112,1.248,1.248,0,0,0,.407-.318,1.628,1.628,0,0,0,.268-.472,2.4,2.4,0,0,0,.122-.582h.9a2.837,2.837,0,0,1-.2.93,2.3,2.3,0,0,1-.47.727,2.084,2.084,0,0,1-.7.473,2.251,2.251,0,0,1-.879.168,2.336,2.336,0,0,1-1.062-.237,2.308,2.308,0,0,1-.8-.639,2.859,2.859,0,0,1-.5-.945,3.831,3.831,0,0,1,0-2.295,2.842,2.842,0,0,1,.5-.944,2.349,2.349,0,0,1,.8-.644,2.294,2.294,0,0,1,1.062-.239,2.633,2.633,0,0,1,.835.131,2.118,2.118,0,0,1,.694.382,1.988,1.988,0,0,1,.484.608,2.247,2.247,0,0,1,.229.817Z" transform="translate(-63.979 -68.608)" fill="#007a9c"/>
    <path id="Path_67" data-name="Path 67" d="M219.7,70.277H223.5v.857h-2.879V72.62h2.663v.809h-2.663V75.09h2.928v.856H219.7Z" transform="translate(-63.409 -68.594)" fill="#007a9c"/>
    <path id="Path_68" data-name="Path 68" d="M223.873,70.277h1.305l1.457,4.439h.013l1.423-4.439h1.289v5.669h-.88V71.57h-.016L227,75.946h-.76l-1.467-4.376h-.016v4.376h-.883Z" transform="translate(-62.937 -68.594)" fill="#007a9c"/>
    <path id="Path_69" data-name="Path 69" d="M229.8,70.277h2.567a1.749,1.749,0,0,1,1.142.349,1.286,1.286,0,0,1,.431,1.056,1.342,1.342,0,0,1-.2.735,1.319,1.319,0,0,1-.561.473v.016a1.156,1.156,0,0,1,.74.5,1.727,1.727,0,0,1,.252.966,1.687,1.687,0,0,1-.111.622,1.271,1.271,0,0,1-.348.5,1.739,1.739,0,0,1-.605.334,2.842,2.842,0,0,1-.883.121H229.8Zm.925,2.376h1.511a.8.8,0,0,0,.554-.2.75.75,0,0,0,.223-.584.772.772,0,0,0-.2-.6.85.85,0,0,0-.576-.175h-1.511Zm0,2.484h1.636a.886.886,0,0,0,.657-.235.9.9,0,0,0,.23-.662.858.858,0,0,0-.23-.647.906.906,0,0,0-.657-.228h-1.636Z" transform="translate(-62.268 -68.594)" fill="#007a9c"/>
    <path id="Path_70" data-name="Path 70" d="M234.483,70.277h2.524a1.862,1.862,0,0,1,1.309.405,1.463,1.463,0,0,1,.438,1.127,1.8,1.8,0,0,1-.112.672,1.494,1.494,0,0,1-.259.428,1.049,1.049,0,0,1-.29.234c-.1.047-.169.078-.213.095v.018a.784.784,0,0,1,.255.079.744.744,0,0,1,.257.2,1.093,1.093,0,0,1,.194.361,1.69,1.69,0,0,1,.078.555,5.519,5.519,0,0,0,.071.91,1.229,1.229,0,0,0,.218.582h-.991a.937.937,0,0,1-.122-.4c-.013-.147-.018-.292-.018-.428a4.483,4.483,0,0,0-.046-.672,1.225,1.225,0,0,0-.164-.469.7.7,0,0,0-.321-.273,1.329,1.329,0,0,0-.523-.088h-1.361v2.334h-.925Zm.925,2.581h1.518a.8.8,0,0,0,.9-.906,1.064,1.064,0,0,0-.076-.44.629.629,0,0,0-.2-.266.712.712,0,0,0-.295-.129,2.082,2.082,0,0,0-.345-.03h-1.5Z" transform="translate(-61.739 -68.594)" fill="#007a9c"/>
    <path id="Path_71" data-name="Path 71" d="M239.165,70.277h3.8v.857h-2.88V72.62h2.667v.809h-2.667V75.09h2.935v.856h-3.857Z" transform="translate(-61.211 -68.594)" fill="#007a9c"/>
    <path id="Path_72" data-name="Path 72" d="M245.051,71.3a2.788,2.788,0,0,0,.514-.048,1.559,1.559,0,0,0,.459-.158,1.16,1.16,0,0,0,.346-.288.854.854,0,0,0,.188-.427h.69v5.558h-.926V72.012h-1.271Z" transform="translate(-60.546 -68.583)" fill="#007a9c"/>
    <path id="Path_73" data-name="Path 73" d="M249.562,74.542a.868.868,0,0,0,.224.551.694.694,0,0,0,.529.213.76.76,0,0,0,.546-.2,1.312,1.312,0,0,0,.314-.483,2.654,2.654,0,0,0,.152-.621c.025-.219.047-.422.061-.605l-.014-.018a1.209,1.209,0,0,1-.466.5,1.294,1.294,0,0,1-.651.169,1.63,1.63,0,0,1-.672-.135,1.506,1.506,0,0,1-.512-.376,1.723,1.723,0,0,1-.335-.59,2.343,2.343,0,0,1-.116-.773,2.275,2.275,0,0,1,.116-.75,1.772,1.772,0,0,1,.351-.6,1.53,1.53,0,0,1,.561-.4,1.925,1.925,0,0,1,.758-.144,1.636,1.636,0,0,1,.9.227,1.559,1.559,0,0,1,.559.619,3.047,3.047,0,0,1,.286.926,7.784,7.784,0,0,1,.08,1.137,5.205,5.205,0,0,1-.1,1.006,3.134,3.134,0,0,1-.331.926,1.93,1.93,0,0,1-.6.678,1.558,1.558,0,0,1-.92.264,1.514,1.514,0,0,1-.584-.114,1.524,1.524,0,0,1-.828-.785,1.613,1.613,0,0,1-.149-.62Zm.8-3.51a.832.832,0,0,0-.4.091.8.8,0,0,0-.283.25,1.292,1.292,0,0,0-.166.365,1.657,1.657,0,0,0-.053.428,1.734,1.734,0,0,0,.053.441,1.293,1.293,0,0,0,.166.369.861.861,0,0,0,.283.258.787.787,0,0,0,.4.1.849.849,0,0,0,.71-.353,1.331,1.331,0,0,0,.173-.375,1.6,1.6,0,0,0,.059-.441,1.526,1.526,0,0,0-.059-.428,1.21,1.21,0,0,0-.173-.362.905.905,0,0,0-.295-.25A.876.876,0,0,0,250.366,71.032Z" transform="translate(-60.143 -68.594)" fill="#007a9c"/>
    <path id="Path_74" data-name="Path 74" d="M255.889,75.946h-3.537a2.392,2.392,0,0,1,.31-1.205,2.916,2.916,0,0,1,.828-.9c.169-.134.344-.26.527-.386a4,4,0,0,0,.5-.4,2.241,2.241,0,0,0,.38-.463,1.188,1.188,0,0,0,.155-.578,1.893,1.893,0,0,0-.033-.322.907.907,0,0,0-.13-.317.8.8,0,0,0-.267-.247.9.9,0,0,0-.444-.1.72.72,0,0,0-.684.4,1.527,1.527,0,0,0-.148.438,3.618,3.618,0,0,0-.056.551h-.845a3.058,3.058,0,0,1,.116-.855,1.914,1.914,0,0,1,.345-.68,1.6,1.6,0,0,1,.558-.449,1.93,1.93,0,0,1,1.558,0,1.539,1.539,0,0,1,.515.422,1.576,1.576,0,0,1,.278.552,2.15,2.15,0,0,1,.081.569,1.755,1.755,0,0,1-.1.6,1.977,1.977,0,0,1-.258.5,2.531,2.531,0,0,1-.372.416,5,5,0,0,1-.428.358q-.222.169-.444.317c-.149.1-.283.2-.411.3a2.48,2.48,0,0,0-.331.312.913.913,0,0,0-.19.346h2.522Z" transform="translate(-59.722 -68.594)" fill="#007a9c"/>
    <path id="Path_75" data-name="Path 75" d="M259.586,75.946H256.05a2.392,2.392,0,0,1,.311-1.205,2.985,2.985,0,0,1,.828-.9c.169-.134.343-.26.526-.386a4.1,4.1,0,0,0,.5-.4,2.057,2.057,0,0,0,.376-.463,1.143,1.143,0,0,0,.156-.578,1.872,1.872,0,0,0-.03-.322.891.891,0,0,0-.132-.317.833.833,0,0,0-.265-.247.9.9,0,0,0-.444-.1.779.779,0,0,0-.421.107.792.792,0,0,0-.265.295,1.491,1.491,0,0,0-.147.438,3.024,3.024,0,0,0-.057.551h-.845a3.016,3.016,0,0,1,.117-.855,1.879,1.879,0,0,1,.345-.68,1.605,1.605,0,0,1,.556-.449,1.933,1.933,0,0,1,1.559,0,1.541,1.541,0,0,1,.513.422,1.655,1.655,0,0,1,.278.552,2.15,2.15,0,0,1,.081.569,1.839,1.839,0,0,1-.1.6,2.016,2.016,0,0,1-.259.5,2.7,2.7,0,0,1-.372.416,4.979,4.979,0,0,1-.426.358c-.149.112-.3.218-.446.317s-.285.2-.41.3a2.323,2.323,0,0,0-.328.312.907.907,0,0,0-.194.346h2.522Z" transform="translate(-59.304 -68.594)" fill="#007a9c"/>
  </g>
  <path id="Path_76" data-name="Path 76" d="M49.315,16.212c0,7.188-4,21.209-10.6,21.209s-10.6-14.02-10.6-21.209A32.777,32.777,0,0,1,38.7,14.572,33.05,33.05,0,0,1,49.315,16.212Z" transform="translate(3.174 1.645)" fill="#4fbacb"/>
  <path id="Path_77" data-name="Path 77" d="M8.968,35.484c7.188,0,21.209,4,21.209,10.6s-14.02,10.6-21.209,10.6A32.768,32.768,0,0,1,7.328,46.1,33.058,33.058,0,0,1,8.968,35.484Z" transform="translate(0.827 4.007)" fill="#4fbacb"/>
  <path id="Path_78" data-name="Path 78" d="M28.24,76c0-7.186,4-21.208,10.6-21.208S49.442,68.812,49.442,76a32.714,32.714,0,0,1-10.587,1.644A32.993,32.993,0,0,1,28.24,76Z" transform="translate(3.189 6.186)" fill="#4fbacb"/>
  <path id="Path_79" data-name="Path 79" d="M68.755,56.56c-7.189,0-21.21-4-21.21-10.6s14.02-10.6,21.21-10.6A32.785,32.785,0,0,1,70.4,45.945,33.052,33.052,0,0,1,68.755,56.56Z" transform="translate(5.368 3.992)" fill="#4fbacb"/>
  <path id="Path_80" data-name="Path 80" d="M46.537,47.7c0,2.774,1.6,4.891,5.489,7.419a43.631,43.631,0,0,0,15.762,5.9s-.885,3.542-5.608,8.266-7.606,5.567-7.606,5.567A43.628,43.628,0,0,0,48.05,59.342c-2.681-3.784-4.82-5.3-7.59-5.192-2.771-.11-4.91,1.408-7.591,5.192a43.652,43.652,0,0,0-6.525,15.513s-2.884-.846-7.606-5.567-5.607-8.266-5.607-8.266a43.62,43.62,0,0,0,15.76-5.9c3.887-2.527,5.49-4.644,5.49-7.419s-1.6-4.892-5.49-7.42a43.658,43.658,0,0,0-15.76-5.9s.885-3.542,5.607-8.264,7.606-5.567,7.606-5.567a43.661,43.661,0,0,0,6.525,15.513c2.681,3.785,4.82,5.3,7.591,5.193,2.77.11,4.909-1.408,7.59-5.193a43.636,43.636,0,0,0,6.525-15.513s2.884.844,7.606,5.567,5.608,8.264,5.608,8.264a43.669,43.669,0,0,0-15.762,5.9C48.14,42.81,46.537,44.926,46.537,47.7Z" transform="translate(1.483 2.32)" fill="#007a9c"/>
  <line id="Line_1" data-name="Line 1" x2="339.764" fill="none"/>
  <line id="Line_2" data-name="Line 2" x1="339.764" transform="translate(0 100)" fill="none"/>
</svg>
